<?xml version="1.0" encoding="utf-8" standalone="no"?>
<!DOCTYPE svg PUBLIC "-//W3C//DTD SVG 1.1//EN"
  "http://www.w3.org/Graphics/SVG/1.1/DTD/svg11.dtd">
<svg xmlns:xlink="http://www.w3.org/1999/xlink" width="1129.3625pt" height="1103.979688pt" viewBox="0 0 1129.3625 1103.979688" xmlns="http://www.w3.org/2000/svg" version="1.1">
 <metadata>
  <rdf:RDF xmlns:dc="http://purl.org/dc/elements/1.1/" xmlns:cc="http://creativecommons.org/ns#" xmlns:rdf="http://www.w3.org/1999/02/22-rdf-syntax-ns#">
   <cc:Work>
    <dc:type rdf:resource="http://purl.org/dc/dcmitype/StillImage"/>
    <dc:date>2023-08-17T17:13:52.115362</dc:date>
    <dc:format>image/svg+xml</dc:format>
    <dc:creator>
     <cc:Agent>
      <dc:title>Matplotlib v3.7.1, https://matplotlib.org/</dc:title>
     </cc:Agent>
    </dc:creator>
   </cc:Work>
  </rdf:RDF>
 </metadata>
 <defs>
  <style type="text/css">*{stroke-linejoin: round; stroke-linecap: butt}</style>
 </defs>
 <g id="figure_1">
  <g id="patch_1">
   <path d="M 0 1103.979688 
L 1129.3625 1103.979688 
L 1129.3625 0 
L 0 0 
L 0 1103.979688 
z
" style="fill: none"/>
  </g>
  <g id="axes_1">
   <g id="patch_2">
    <path d="M 13.3625 1087.2 
L 1129.3625 1087.2 
L 1129.3625 0 
L 13.3625 0 
z
" style="fill: #ffffff"/>
   </g>
   <g id="PolyCollection_1">
    <defs>
     <path id="m6254c80c74" d="M 100.36405 -66.197869 
L 65.86095 -66.197869 
L 66.798144 -76.18134 
L 70.550429 -86.164811 
L 74.893094 -96.148283 
L 78.156528 -106.131754 
L 80.010442 -116.115225 
L 80.897704 -126.098696 
L 81.307241 -136.082167 
L 81.51792 -146.065638 
L 81.648263 -156.049109 
L 81.74263 -166.03258 
L 81.814537 -176.016051 
L 81.865709 -185.999522 
L 81.896822 -195.982993 
L 81.910298 -205.966464 
L 81.908129 -215.949935 
L 81.891782 -225.933407 
L 81.864554 -235.916878 
L 81.832004 -245.900349 
L 81.799711 -255.88382 
L 81.770137 -265.867291 
L 81.740195 -275.850762 
L 81.702825 -285.834233 
L 81.65368 -295.817704 
L 81.596453 -305.801175 
L 81.540375 -315.784646 
L 81.493345 -325.768117 
L 81.457529 -335.751588 
L 81.429025 -345.735059 
L 81.40222 -355.71853 
L 81.378125 -365.702002 
L 81.367372 -375.685473 
L 81.380772 -385.668944 
L 81.417706 -395.652415 
L 81.466578 -405.635886 
L 81.514484 -415.619357 
L 81.554047 -425.602828 
L 81.585319 -435.586299 
L 81.616937 -445.56977 
L 81.663853 -455.553241 
L 81.73794 -465.536712 
L 81.838488 -475.520183 
L 81.952764 -485.503654 
L 82.065431 -495.487126 
L 82.166892 -505.470597 
L 82.254612 -515.454068 
L 82.329632 -525.437539 
L 82.393481 -535.42101 
L 82.447917 -545.404481 
L 82.4961 -555.387952 
L 82.542856 -565.371423 
L 82.592898 -575.354894 
L 82.647623 -585.338365 
L 82.703284 -595.321836 
L 82.753392 -605.305307 
L 82.794002 -615.288778 
L 82.826799 -625.272249 
L 82.857238 -635.255721 
L 82.88999 -645.239192 
L 82.925491 -655.222663 
L 82.959718 -665.206134 
L 82.987292 -675.189605 
L 83.0056 -685.173076 
L 83.016362 -695.156547 
L 83.023495 -705.140018 
L 83.029877 -715.123489 
L 83.036211 -725.10696 
L 83.042233 -735.090431 
L 83.047935 -745.073902 
L 83.053586 -755.057373 
L 83.059497 -765.040845 
L 83.066074 -775.024316 
L 83.073496 -785.007787 
L 83.081144 -794.991258 
L 83.087791 -804.974729 
L 83.092521 -814.9582 
L 83.095323 -824.941671 
L 83.096862 -834.925142 
L 83.097941 -844.908613 
L 83.099183 -854.892084 
L 83.100913 -864.875555 
L 83.103058 -874.859026 
L 83.105226 -884.842497 
L 83.107059 -894.825968 
L 83.108504 -904.80944 
L 83.109693 -914.792911 
L 83.11069 -924.776382 
L 83.111438 -934.759853 
L 83.111855 -944.743324 
L 83.111945 -954.726795 
L 83.111821 -964.710266 
L 83.111679 -974.693737 
L 83.111681 -984.677208 
L 83.111852 -994.660679 
L 83.112075 -1004.64415 
L 83.112205 -1014.627621 
L 83.112164 -1024.611092 
L 83.111976 -1034.594564 
L 83.111758 -1044.578035 
L 83.111663 -1054.561506 
L 83.113337 -1054.561506 
L 83.113337 -1054.561506 
L 83.113242 -1044.578035 
L 83.113024 -1034.594564 
L 83.112836 -1024.611092 
L 83.112795 -1014.627621 
L 83.112925 -1004.64415 
L 83.113148 -994.660679 
L 83.113319 -984.677208 
L 83.113321 -974.693737 
L 83.113179 -964.710266 
L 83.113055 -954.726795 
L 83.113145 -944.743324 
L 83.113562 -934.759853 
L 83.11431 -924.776382 
L 83.115307 -914.792911 
L 83.116496 -904.80944 
L 83.117941 -894.825968 
L 83.119774 -884.842497 
L 83.121942 -874.859026 
L 83.124087 -864.875555 
L 83.125817 -854.892084 
L 83.127059 -844.908613 
L 83.128138 -834.925142 
L 83.129677 -824.941671 
L 83.132479 -814.9582 
L 83.137209 -804.974729 
L 83.143856 -794.991258 
L 83.151504 -785.007787 
L 83.158926 -775.024316 
L 83.165503 -765.040845 
L 83.171414 -755.057373 
L 83.177065 -745.073902 
L 83.182767 -735.090431 
L 83.188789 -725.10696 
L 83.195123 -715.123489 
L 83.201505 -705.140018 
L 83.208638 -695.156547 
L 83.2194 -685.173076 
L 83.237708 -675.189605 
L 83.265282 -665.206134 
L 83.299509 -655.222663 
L 83.33501 -645.239192 
L 83.367762 -635.255721 
L 83.398201 -625.272249 
L 83.430998 -615.288778 
L 83.471608 -605.305307 
L 83.521716 -595.321836 
L 83.577377 -585.338365 
L 83.632102 -575.354894 
L 83.682144 -565.371423 
L 83.7289 -555.387952 
L 83.777083 -545.404481 
L 83.831519 -535.42101 
L 83.895368 -525.437539 
L 83.970388 -515.454068 
L 84.058108 -505.470597 
L 84.159569 -495.487126 
L 84.272236 -485.503654 
L 84.386512 -475.520183 
L 84.48706 -465.536712 
L 84.561147 -455.553241 
L 84.608063 -445.56977 
L 84.639681 -435.586299 
L 84.670953 -425.602828 
L 84.710516 -415.619357 
L 84.758422 -405.635886 
L 84.807294 -395.652415 
L 84.844228 -385.668944 
L 84.857628 -375.685473 
L 84.846875 -365.702002 
L 84.82278 -355.71853 
L 84.795975 -345.735059 
L 84.767471 -335.751588 
L 84.731655 -325.768117 
L 84.684625 -315.784646 
L 84.628547 -305.801175 
L 84.57132 -295.817704 
L 84.522175 -285.834233 
L 84.484805 -275.850762 
L 84.454863 -265.867291 
L 84.425289 -255.88382 
L 84.392996 -245.900349 
L 84.360446 -235.916878 
L 84.333218 -225.933407 
L 84.316871 -215.949935 
L 84.314702 -205.966464 
L 84.328178 -195.982993 
L 84.359291 -185.999522 
L 84.410463 -176.016051 
L 84.48237 -166.03258 
L 84.576737 -156.049109 
L 84.70708 -146.065638 
L 84.917759 -136.082167 
L 85.327296 -126.098696 
L 86.214558 -116.115225 
L 88.068472 -106.131754 
L 91.331906 -96.148283 
L 95.674571 -86.164811 
L 99.426856 -76.18134 
L 100.36405 -66.197869 
z
" style="stroke: #626262; stroke-width: 1.5"/>
    </defs>
    <g clip-path="url(#p6f7e249825)">
     <use xlink:href="#m6254c80c74" x="0" y="1103.979688" style="fill: #8dd3c7; stroke: #626262; stroke-width: 1.5"/>
    </g>
   </g>
   <g id="PolyCollection_2">
    <defs>
     <path id="m6782af533a" d="M 239.86405 -66.197869 
L 205.36095 -66.197869 
L 206.293965 -76.031015 
L 209.95158 -85.864161 
L 214.245136 -95.697307 
L 217.540384 -105.530453 
L 219.448178 -115.363599 
L 220.365336 -125.196745 
L 220.782264 -135.029891 
L 220.994337 -144.863036 
L 221.126682 -154.696182 
L 221.22231 -164.529328 
L 221.29394 -174.362474 
L 221.3438 -184.19562 
L 221.371249 -194.028766 
L 221.376908 -203.861912 
L 221.364441 -213.695058 
L 221.339919 -223.528204 
L 221.309867 -233.36135 
L 221.279494 -243.194495 
L 221.251666 -253.027641 
L 221.22639 -262.860787 
L 221.201046 -272.693933 
L 221.172089 -282.527079 
L 221.137652 -292.360225 
L 221.098747 -302.193371 
L 221.057898 -312.026517 
L 221.017302 -321.859663 
L 220.979062 -331.692809 
L 220.946669 -341.525954 
L 220.924719 -351.3591 
L 220.916452 -361.192246 
L 220.922218 -371.025392 
L 220.940632 -380.858538 
L 220.970046 -390.691684 
L 221.008181 -400.52483 
L 221.050953 -410.357976 
L 221.092532 -420.191122 
L 221.128097 -430.024267 
L 221.158349 -439.857413 
L 221.191272 -449.690559 
L 221.238069 -459.523705 
L 221.306038 -469.356851 
L 221.393641 -479.189997 
L 221.491062 -489.023143 
L 221.585772 -498.856289 
L 221.669285 -508.689435 
L 221.74086 -518.522581 
L 221.80608 -528.355726 
L 221.871202 -538.188872 
L 221.9373 -548.022018 
L 221.999288 -557.855164 
L 222.051118 -567.68831 
L 222.092288 -577.521456 
L 222.129052 -587.354602 
L 222.168959 -597.187748 
L 222.214172 -607.020894 
L 222.260289 -616.854039 
L 222.301388 -626.687185 
L 222.335455 -636.520331 
L 222.364959 -646.353477 
L 222.393493 -656.186623 
L 222.422667 -666.019769 
L 222.451319 -675.852915 
L 222.476677 -685.686061 
L 222.496389 -695.519207 
L 222.510076 -705.352353 
L 222.519334 -715.185498 
L 222.526429 -725.018644 
L 222.532849 -734.85179 
L 222.538868 -744.684936 
L 222.544324 -754.518082 
L 222.549552 -764.351228 
L 222.555397 -774.184374 
L 222.562525 -784.01752 
L 222.570839 -793.850666 
L 222.57932 -803.683812 
L 222.586436 -813.516957 
L 222.59114 -823.350103 
L 222.59363 -833.183249 
L 222.595002 -843.016395 
L 222.596272 -852.849541 
L 222.597882 -862.682687 
L 222.599865 -872.515833 
L 222.602112 -882.348979 
L 222.604436 -892.182125 
L 222.606593 -902.01527 
L 222.608366 -911.848416 
L 222.609652 -921.681562 
L 222.610475 -931.514708 
L 222.61095 -941.347854 
L 222.611219 -951.181 
L 222.611372 -961.014146 
L 222.611442 -970.847292 
L 222.611474 -980.680438 
L 222.611541 -990.513584 
L 222.611663 -1000.346729 
L 222.611761 -1010.179875 
L 222.611752 -1020.013021 
L 222.611668 -1029.846167 
L 222.611639 -1039.679313 
L 222.613361 -1039.679313 
L 222.613361 -1039.679313 
L 222.613332 -1029.846167 
L 222.613248 -1020.013021 
L 222.613239 -1010.179875 
L 222.613337 -1000.346729 
L 222.613459 -990.513584 
L 222.613526 -980.680438 
L 222.613558 -970.847292 
L 222.613628 -961.014146 
L 222.613781 -951.181 
L 222.61405 -941.347854 
L 222.614525 -931.514708 
L 222.615348 -921.681562 
L 222.616634 -911.848416 
L 222.618407 -902.01527 
L 222.620564 -892.182125 
L 222.622888 -882.348979 
L 222.625135 -872.515833 
L 222.627118 -862.682687 
L 222.628728 -852.849541 
L 222.629998 -843.016395 
L 222.63137 -833.183249 
L 222.63386 -823.350103 
L 222.638564 -813.516957 
L 222.64568 -803.683812 
L 222.654161 -793.850666 
L 222.662475 -784.01752 
L 222.669603 -774.184374 
L 222.675448 -764.351228 
L 222.680676 -754.518082 
L 222.686132 -744.684936 
L 222.692151 -734.85179 
L 222.698571 -725.018644 
L 222.705666 -715.185498 
L 222.714924 -705.352353 
L 222.728611 -695.519207 
L 222.748323 -685.686061 
L 222.773681 -675.852915 
L 222.802333 -666.019769 
L 222.831507 -656.186623 
L 222.860041 -646.353477 
L 222.889545 -636.520331 
L 222.923612 -626.687185 
L 222.964711 -616.854039 
L 223.010828 -607.020894 
L 223.056041 -597.187748 
L 223.095948 -587.354602 
L 223.132712 -577.521456 
L 223.173882 -567.68831 
L 223.225712 -557.855164 
L 223.2877 -548.022018 
L 223.353798 -538.188872 
L 223.41892 -528.355726 
L 223.48414 -518.522581 
L 223.555715 -508.689435 
L 223.639228 -498.856289 
L 223.733938 -489.023143 
L 223.831359 -479.189997 
L 223.918962 -469.356851 
L 223.986931 -459.523705 
L 224.033728 -449.690559 
L 224.066651 -439.857413 
L 224.096903 -430.024267 
L 224.132468 -420.191122 
L 224.174047 -410.357976 
L 224.216819 -400.52483 
L 224.254954 -390.691684 
L 224.284368 -380.858538 
L 224.302782 -371.025392 
L 224.308548 -361.192246 
L 224.300281 -351.3591 
L 224.278331 -341.525954 
L 224.245938 -331.692809 
L 224.207698 -321.859663 
L 224.167102 -312.026517 
L 224.126253 -302.193371 
L 224.087348 -292.360225 
L 224.052911 -282.527079 
L 224.023954 -272.693933 
L 223.99861 -262.860787 
L 223.973334 -253.027641 
L 223.945506 -243.194495 
L 223.915133 -233.36135 
L 223.885081 -223.528204 
L 223.860559 -213.695058 
L 223.848092 -203.861912 
L 223.853751 -194.028766 
L 223.8812 -184.19562 
L 223.93106 -174.362474 
L 224.00269 -164.529328 
L 224.098318 -154.696182 
L 224.230663 -144.863036 
L 224.442736 -135.029891 
L 224.859664 -125.196745 
L 225.776822 -115.363599 
L 227.684616 -105.530453 
L 230.979864 -95.697307 
L 235.27342 -85.864161 
L 238.931035 -76.031015 
L 239.86405 -66.197869 
z
" style="stroke: #626262; stroke-width: 1.5"/>
    </defs>
    <g clip-path="url(#p6f7e249825)">
     <use xlink:href="#m6782af533a" x="0" y="1103.979688" style="fill: #ffffb3; stroke: #626262; stroke-width: 1.5"/>
    </g>
   </g>
   <g id="PolyCollection_3">
    <defs>
     <path id="mc970db85c9" d="M 379.36405 -66.197869 
L 344.86095 -66.197869 
L 345.502956 -75.196122 
L 348.642727 -84.194375 
L 352.630163 -93.192628 
L 355.99005 -102.190881 
L 358.169912 -111.189134 
L 359.361697 -120.187387 
L 359.975378 -129.18564 
L 360.316046 -138.183893 
L 360.534244 -147.182146 
L 360.687326 -156.180399 
L 360.795909 -165.178652 
L 360.869857 -174.176905 
L 360.915853 -183.175158 
L 360.93977 -192.173411 
L 360.948284 -201.171664 
L 360.948577 -210.169917 
L 360.945842 -219.16817 
L 360.94109 -228.166423 
L 360.931718 -237.164676 
L 360.914556 -246.162929 
L 360.888791 -255.161182 
L 360.85623 -264.159435 
L 360.819131 -273.157688 
L 360.778145 -282.155941 
L 360.732337 -291.154194 
L 360.680928 -300.152447 
L 360.625011 -309.1507 
L 360.568012 -318.148953 
L 360.514751 -327.147206 
L 360.46959 -336.145459 
L 360.434401 -345.143711 
L 360.407929 -354.141964 
L 360.388053 -363.140217 
L 360.375425 -372.13847 
L 360.374297 -381.136723 
L 360.38891 -390.134976 
L 360.419322 -399.133229 
L 360.461354 -408.131482 
L 360.509992 -417.129735 
L 360.561646 -426.127988 
L 360.613784 -435.126241 
L 360.665061 -444.124494 
L 360.717123 -453.122747 
L 360.774479 -462.121 
L 360.840886 -471.119253 
L 360.916303 -480.117506 
L 360.997764 -489.115759 
L 361.081943 -498.114012 
L 361.165976 -507.112265 
L 361.246786 -516.110518 
L 361.321345 -525.108771 
L 361.388297 -534.107024 
L 361.448847 -543.105277 
L 361.505512 -552.10353 
L 361.559944 -561.101783 
L 361.611973 -570.100036 
L 361.660512 -579.098289 
L 361.705135 -588.096542 
L 361.746732 -597.094795 
L 361.786602 -606.093048 
L 361.824946 -615.091301 
L 361.860414 -624.089554 
L 361.891263 -633.087807 
L 361.91694 -642.08606 
L 361.938513 -651.084313 
L 361.957603 -660.082566 
L 361.974972 -669.080818 
L 361.990138 -678.079071 
L 362.002326 -687.077324 
L 362.011691 -696.075577 
L 362.019423 -705.07383 
L 362.026703 -714.072083 
L 362.033946 -723.070336 
L 362.041212 -732.068589 
L 362.048906 -741.066842 
L 362.057542 -750.065095 
L 362.066898 -759.063348 
L 362.075812 -768.061601 
L 362.082959 -777.059854 
L 362.087738 -786.058107 
L 362.090498 -795.05636 
L 362.092133 -804.054613 
L 362.093507 -813.052866 
L 362.095099 -822.051119 
L 362.097017 -831.049372 
L 362.099232 -840.047625 
L 362.101657 -849.045878 
L 362.104061 -858.044131 
L 362.106096 -867.042384 
L 362.107528 -876.040637 
L 362.108405 -885.03889 
L 362.108966 -894.037143 
L 362.109416 -903.035396 
L 362.109799 -912.033649 
L 362.110027 -921.031902 
L 362.11003 -930.030155 
L 362.109895 -939.028408 
L 362.109859 -948.026661 
L 362.110123 -957.024914 
L 362.114877 -957.024914 
L 362.114877 -957.024914 
L 362.115141 -948.026661 
L 362.115105 -939.028408 
L 362.11497 -930.030155 
L 362.114973 -921.031902 
L 362.115201 -912.033649 
L 362.115584 -903.035396 
L 362.116034 -894.037143 
L 362.116595 -885.03889 
L 362.117472 -876.040637 
L 362.118904 -867.042384 
L 362.120939 -858.044131 
L 362.123343 -849.045878 
L 362.125768 -840.047625 
L 362.127983 -831.049372 
L 362.129901 -822.051119 
L 362.131493 -813.052866 
L 362.132867 -804.054613 
L 362.134502 -795.05636 
L 362.137262 -786.058107 
L 362.142041 -777.059854 
L 362.149188 -768.061601 
L 362.158102 -759.063348 
L 362.167458 -750.065095 
L 362.176094 -741.066842 
L 362.183788 -732.068589 
L 362.191054 -723.070336 
L 362.198297 -714.072083 
L 362.205577 -705.07383 
L 362.213309 -696.075577 
L 362.222674 -687.077324 
L 362.234862 -678.079071 
L 362.250028 -669.080818 
L 362.267397 -660.082566 
L 362.286487 -651.084313 
L 362.30806 -642.08606 
L 362.333737 -633.087807 
L 362.364586 -624.089554 
L 362.400054 -615.091301 
L 362.438398 -606.093048 
L 362.478268 -597.094795 
L 362.519865 -588.096542 
L 362.564488 -579.098289 
L 362.613027 -570.100036 
L 362.665056 -561.101783 
L 362.719488 -552.10353 
L 362.776153 -543.105277 
L 362.836703 -534.107024 
L 362.903655 -525.108771 
L 362.978214 -516.110518 
L 363.059024 -507.112265 
L 363.143057 -498.114012 
L 363.227236 -489.115759 
L 363.308697 -480.117506 
L 363.384114 -471.119253 
L 363.450521 -462.121 
L 363.507877 -453.122747 
L 363.559939 -444.124494 
L 363.611216 -435.126241 
L 363.663354 -426.127988 
L 363.715008 -417.129735 
L 363.763646 -408.131482 
L 363.805678 -399.133229 
L 363.83609 -390.134976 
L 363.850703 -381.136723 
L 363.849575 -372.13847 
L 363.836947 -363.140217 
L 363.817071 -354.141964 
L 363.790599 -345.143711 
L 363.75541 -336.145459 
L 363.710249 -327.147206 
L 363.656988 -318.148953 
L 363.599989 -309.1507 
L 363.544072 -300.152447 
L 363.492663 -291.154194 
L 363.446855 -282.155941 
L 363.405869 -273.157688 
L 363.36877 -264.159435 
L 363.336209 -255.161182 
L 363.310444 -246.162929 
L 363.293282 -237.164676 
L 363.28391 -228.166423 
L 363.279158 -219.16817 
L 363.276423 -210.169917 
L 363.276716 -201.171664 
L 363.28523 -192.173411 
L 363.309147 -183.175158 
L 363.355143 -174.176905 
L 363.429091 -165.178652 
L 363.537674 -156.180399 
L 363.690756 -147.182146 
L 363.908954 -138.183893 
L 364.249622 -129.18564 
L 364.863303 -120.187387 
L 366.055088 -111.189134 
L 368.23495 -102.190881 
L 371.594837 -93.192628 
L 375.582273 -84.194375 
L 378.722044 -75.196122 
L 379.36405 -66.197869 
z
" style="stroke: #626262; stroke-width: 1.5"/>
    </defs>
    <g clip-path="url(#p6f7e249825)">
     <use xlink:href="#mc970db85c9" x="0" y="1103.979688" style="fill: #bebada; stroke: #626262; stroke-width: 1.5"/>
    </g>
   </g>
   <g id="PolyCollection_4">
    <defs>
     <path id="mb7c0183cda" d="M 518.86405 -66.197869 
L 484.36095 -66.197869 
L 485.15856 -75.344542 
L 488.470867 -84.491214 
L 492.55656 -93.637886 
L 495.920893 -102.784559 
L 498.055196 -111.931231 
L 499.196594 -121.077903 
L 499.76882 -130.224576 
L 500.070697 -139.371248 
L 500.247267 -148.51792 
L 500.358197 -157.664593 
L 500.430343 -166.811265 
L 500.479097 -175.957937 
L 500.513825 -185.10461 
L 500.538679 -194.251282 
L 500.55371 -203.397955 
L 500.557675 -212.544627 
L 500.550987 -221.691299 
L 500.536356 -230.837972 
L 500.516471 -239.984644 
L 500.491026 -249.131316 
L 500.456533 -258.277989 
L 500.410003 -267.424661 
L 500.353125 -276.571333 
L 500.292268 -285.718006 
L 500.234036 -294.864678 
L 500.181284 -304.01135 
L 500.133849 -313.158023 
L 500.092025 -322.304695 
L 500.057343 -331.451367 
L 500.029661 -340.59804 
L 500.005631 -349.744712 
L 499.981764 -358.891384 
L 499.958544 -368.038057 
L 499.940639 -377.184729 
L 499.93348 -386.331401 
L 499.940271 -395.478074 
L 499.961779 -404.624746 
L 499.997431 -413.771418 
L 500.045396 -422.918091 
L 500.101952 -432.064763 
L 500.162455 -441.211436 
L 500.22438 -450.358108 
L 500.289247 -459.50478 
L 500.36035 -468.651453 
L 500.43806 -477.798125 
L 500.517905 -486.944797 
L 500.5938 -496.09147 
L 500.663153 -505.238142 
L 500.728638 -514.384814 
L 500.794922 -523.531487 
L 500.863961 -532.678159 
L 500.933733 -541.824831 
L 501.000779 -550.971504 
L 501.062824 -560.118176 
L 501.119214 -569.264848 
L 501.170309 -578.411521 
L 501.216874 -587.558193 
L 501.259253 -596.704865 
L 501.296909 -605.851538 
L 501.329267 -614.99821 
L 501.356872 -624.144882 
L 501.381108 -633.291555 
L 501.403035 -642.438227 
L 501.423102 -651.5849 
L 501.441742 -660.731572 
L 501.459524 -669.878244 
L 501.476675 -679.024917 
L 501.492816 -688.171589 
L 501.507241 -697.318261 
L 501.519409 -706.464934 
L 501.52933 -715.611606 
L 501.537734 -724.758278 
L 501.54585 -733.904951 
L 501.554706 -743.051623 
L 501.564362 -752.198295 
L 501.573769 -761.344968 
L 501.581508 -770.49164 
L 501.586825 -779.638312 
L 501.590032 -788.784985 
L 501.592033 -797.931657 
L 501.593624 -807.078329 
L 501.59521 -816.225002 
L 501.596939 -825.371674 
L 501.598872 -834.518346 
L 501.600993 -843.665019 
L 501.603171 -852.811691 
L 501.605176 -861.958363 
L 501.606789 -871.105036 
L 501.607952 -880.251708 
L 501.608822 -889.398381 
L 501.609598 -898.545053 
L 501.610304 -907.691725 
L 501.610778 -916.838398 
L 501.610894 -925.98507 
L 501.610729 -935.131742 
L 501.610519 -944.278415 
L 501.610474 -953.425087 
L 501.610658 -962.571759 
L 501.611012 -971.718432 
L 501.613988 -971.718432 
L 501.613988 -971.718432 
L 501.614342 -962.571759 
L 501.614526 -953.425087 
L 501.614481 -944.278415 
L 501.614271 -935.131742 
L 501.614106 -925.98507 
L 501.614222 -916.838398 
L 501.614696 -907.691725 
L 501.615402 -898.545053 
L 501.616178 -889.398381 
L 501.617048 -880.251708 
L 501.618211 -871.105036 
L 501.619824 -861.958363 
L 501.621829 -852.811691 
L 501.624007 -843.665019 
L 501.626128 -834.518346 
L 501.628061 -825.371674 
L 501.62979 -816.225002 
L 501.631376 -807.078329 
L 501.632967 -797.931657 
L 501.634968 -788.784985 
L 501.638175 -779.638312 
L 501.643492 -770.49164 
L 501.651231 -761.344968 
L 501.660638 -752.198295 
L 501.670294 -743.051623 
L 501.67915 -733.904951 
L 501.687266 -724.758278 
L 501.69567 -715.611606 
L 501.705591 -706.464934 
L 501.717759 -697.318261 
L 501.732184 -688.171589 
L 501.748325 -679.024917 
L 501.765476 -669.878244 
L 501.783258 -660.731572 
L 501.801898 -651.5849 
L 501.821965 -642.438227 
L 501.843892 -633.291555 
L 501.868128 -624.144882 
L 501.895733 -614.99821 
L 501.928091 -605.851538 
L 501.965747 -596.704865 
L 502.008126 -587.558193 
L 502.054691 -578.411521 
L 502.105786 -569.264848 
L 502.162176 -560.118176 
L 502.224221 -550.971504 
L 502.291267 -541.824831 
L 502.361039 -532.678159 
L 502.430078 -523.531487 
L 502.496362 -514.384814 
L 502.561847 -505.238142 
L 502.6312 -496.09147 
L 502.707095 -486.944797 
L 502.78694 -477.798125 
L 502.86465 -468.651453 
L 502.935753 -459.50478 
L 503.00062 -450.358108 
L 503.062545 -441.211436 
L 503.123048 -432.064763 
L 503.179604 -422.918091 
L 503.227569 -413.771418 
L 503.263221 -404.624746 
L 503.284729 -395.478074 
L 503.29152 -386.331401 
L 503.284361 -377.184729 
L 503.266456 -368.038057 
L 503.243236 -358.891384 
L 503.219369 -349.744712 
L 503.195339 -340.59804 
L 503.167657 -331.451367 
L 503.132975 -322.304695 
L 503.091151 -313.158023 
L 503.043716 -304.01135 
L 502.990964 -294.864678 
L 502.932732 -285.718006 
L 502.871875 -276.571333 
L 502.814997 -267.424661 
L 502.768467 -258.277989 
L 502.733974 -249.131316 
L 502.708529 -239.984644 
L 502.688644 -230.837972 
L 502.674013 -221.691299 
L 502.667325 -212.544627 
L 502.67129 -203.397955 
L 502.686321 -194.251282 
L 502.711175 -185.10461 
L 502.745903 -175.957937 
L 502.794657 -166.811265 
L 502.866803 -157.664593 
L 502.977733 -148.51792 
L 503.154303 -139.371248 
L 503.45618 -130.224576 
L 504.028406 -121.077903 
L 505.169804 -111.931231 
L 507.304107 -102.784559 
L 510.66844 -93.637886 
L 514.754133 -84.491214 
L 518.06644 -75.344542 
L 518.86405 -66.197869 
z
" style="stroke: #626262; stroke-width: 1.5"/>
    </defs>
    <g clip-path="url(#p6f7e249825)">
     <use xlink:href="#mb7c0183cda" x="0" y="1103.979688" style="fill: #fb8072; stroke: #626262; stroke-width: 1.5"/>
    </g>
   </g>
   <g id="PolyCollection_5">
    <defs>
     <path id="m2acebf1af5" d="M 696.9125 -66.197869 
L 585.3125 -66.197869 
L 602.50231 -75.162815 
L 627.701812 -84.127762 
L 637.25334 -93.092708 
L 639.221279 -102.057654 
L 639.78012 -111.0226 
L 640.073422 -119.987546 
L 640.272195 -128.952493 
L 640.420953 -137.917439 
L 640.521748 -146.882385 
L 640.58902 -155.847331 
L 640.637346 -164.812277 
L 640.665362 -173.777223 
L 640.681562 -182.74217 
L 640.697039 -191.707116 
L 640.705021 -200.672062 
L 640.698224 -209.637008 
L 640.684164 -218.601954 
L 640.683416 -227.5669 
L 640.695473 -236.531847 
L 640.691039 -245.496793 
L 640.666379 -254.461739 
L 640.642077 -263.426685 
L 640.627136 -272.391631 
L 640.627177 -281.356578 
L 640.633074 -290.321524 
L 640.629076 -299.28647 
L 640.607009 -308.251416 
L 640.58178 -317.216362 
L 640.577254 -326.181308 
L 640.582928 -335.146255 
L 640.587503 -344.111201 
L 640.580416 -353.076147 
L 640.569916 -362.041093 
L 640.579377 -371.006039 
L 640.601753 -379.970985 
L 640.621131 -388.935932 
L 640.635926 -397.900878 
L 640.640451 -406.865824 
L 640.650143 -415.83077 
L 640.681922 -424.795716 
L 640.713548 -433.760662 
L 640.728807 -442.725609 
L 640.739775 -451.690555 
L 640.758855 -460.655501 
L 640.785019 -469.620447 
L 640.814345 -478.585393 
L 640.839478 -487.55034 
L 640.86182 -496.515286 
L 640.878114 -505.480232 
L 640.883031 -514.445178 
L 640.890992 -523.410124 
L 640.914575 -532.37507 
L 640.941831 -541.340017 
L 640.958331 -550.304963 
L 640.964863 -559.269909 
L 640.968433 -568.234855 
L 640.976182 -577.199801 
L 640.988515 -586.164747 
L 640.998665 -595.129694 
L 641.010584 -604.09464 
L 641.030717 -613.059586 
L 641.046926 -622.024532 
L 641.052453 -630.989478 
L 641.053089 -639.954425 
L 641.053301 -648.919371 
L 641.057895 -657.884317 
L 641.067507 -666.849263 
L 641.075645 -675.814209 
L 641.079833 -684.779155 
L 641.081433 -693.744102 
L 641.081199 -702.709048 
L 641.082458 -711.673994 
L 641.087101 -720.63894 
L 641.090195 -729.603886 
L 641.089888 -738.568832 
L 641.088764 -747.533779 
L 641.088058 -756.498725 
L 641.087186 -765.463671 
L 641.087888 -774.428617 
L 641.090839 -783.393563 
L 641.092313 -792.358509 
L 641.094597 -801.323456 
L 641.10013 -810.288402 
L 641.104982 -819.253348 
L 641.107443 -828.218294 
L 641.108412 -837.18324 
L 641.108219 -846.148187 
L 641.107988 -855.113133 
L 641.108443 -864.078079 
L 641.108273 -873.043025 
L 641.107597 -882.007971 
L 641.10753 -890.972917 
L 641.108539 -899.937864 
L 641.109939 -908.90281 
L 641.111134 -917.867756 
L 641.11193 -926.832702 
L 641.111967 -935.797648 
L 641.111583 -944.762594 
L 641.111582 -953.727541 
L 641.113418 -953.727541 
L 641.113418 -953.727541 
L 641.113417 -944.762594 
L 641.113033 -935.797648 
L 641.11307 -926.832702 
L 641.113866 -917.867756 
L 641.115061 -908.90281 
L 641.116461 -899.937864 
L 641.11747 -890.972917 
L 641.117403 -882.007971 
L 641.116727 -873.043025 
L 641.116557 -864.078079 
L 641.117012 -855.113133 
L 641.116781 -846.148187 
L 641.116588 -837.18324 
L 641.117557 -828.218294 
L 641.120018 -819.253348 
L 641.12487 -810.288402 
L 641.130403 -801.323456 
L 641.132687 -792.358509 
L 641.134161 -783.393563 
L 641.137112 -774.428617 
L 641.137814 -765.463671 
L 641.136942 -756.498725 
L 641.136236 -747.533779 
L 641.135112 -738.568832 
L 641.134805 -729.603886 
L 641.137899 -720.63894 
L 641.142542 -711.673994 
L 641.143801 -702.709048 
L 641.143567 -693.744102 
L 641.145167 -684.779155 
L 641.149355 -675.814209 
L 641.157493 -666.849263 
L 641.167105 -657.884317 
L 641.171699 -648.919371 
L 641.171911 -639.954425 
L 641.172547 -630.989478 
L 641.178074 -622.024532 
L 641.194283 -613.059586 
L 641.214416 -604.09464 
L 641.226335 -595.129694 
L 641.236485 -586.164747 
L 641.248818 -577.199801 
L 641.256567 -568.234855 
L 641.260137 -559.269909 
L 641.266669 -550.304963 
L 641.283169 -541.340017 
L 641.310425 -532.37507 
L 641.334008 -523.410124 
L 641.341969 -514.445178 
L 641.346886 -505.480232 
L 641.36318 -496.515286 
L 641.385522 -487.55034 
L 641.410655 -478.585393 
L 641.439981 -469.620447 
L 641.466145 -460.655501 
L 641.485225 -451.690555 
L 641.496193 -442.725609 
L 641.511452 -433.760662 
L 641.543078 -424.795716 
L 641.574857 -415.83077 
L 641.584549 -406.865824 
L 641.589074 -397.900878 
L 641.603869 -388.935932 
L 641.623247 -379.970985 
L 641.645623 -371.006039 
L 641.655084 -362.041093 
L 641.644584 -353.076147 
L 641.637497 -344.111201 
L 641.642072 -335.146255 
L 641.647746 -326.181308 
L 641.64322 -317.216362 
L 641.617991 -308.251416 
L 641.595924 -299.28647 
L 641.591926 -290.321524 
L 641.597823 -281.356578 
L 641.597864 -272.391631 
L 641.582923 -263.426685 
L 641.558621 -254.461739 
L 641.533961 -245.496793 
L 641.529527 -236.531847 
L 641.541584 -227.5669 
L 641.540836 -218.601954 
L 641.526776 -209.637008 
L 641.519979 -200.672062 
L 641.527961 -191.707116 
L 641.543438 -182.74217 
L 641.559638 -173.777223 
L 641.587654 -164.812277 
L 641.63598 -155.847331 
L 641.703252 -146.882385 
L 641.804047 -137.917439 
L 641.952805 -128.952493 
L 642.151578 -119.987546 
L 642.44488 -111.0226 
L 643.003721 -102.057654 
L 644.97166 -93.092708 
L 654.523188 -84.127762 
L 679.72269 -75.162815 
L 696.9125 -66.197869 
z
" style="stroke: #626262; stroke-width: 1.5"/>
    </defs>
    <g clip-path="url(#p6f7e249825)">
     <use xlink:href="#m2acebf1af5" x="0" y="1103.979688" style="fill: #80b1d3; stroke: #626262; stroke-width: 1.5"/>
    </g>
   </g>
   <g id="PolyCollection_6">
    <defs>
     <path id="ma8a31793d0" d="M 836.4125 -66.197869 
L 724.8125 -66.197869 
L 741.395057 -74.999124 
L 766.40491 -83.800379 
L 776.545304 -92.601634 
L 778.720317 -101.402889 
L 779.307149 -110.204144 
L 779.61169 -119.005399 
L 779.796996 -127.806654 
L 779.917858 -136.607909 
L 780.00912 -145.409163 
L 780.080513 -154.210418 
L 780.131938 -163.011673 
L 780.168675 -171.812928 
L 780.202014 -180.614183 
L 780.229777 -189.415438 
L 780.238334 -198.216693 
L 780.236069 -207.017948 
L 780.237272 -215.819203 
L 780.236296 -224.620457 
L 780.225148 -233.421712 
L 780.205488 -242.222967 
L 780.189088 -251.024222 
L 780.178311 -259.825477 
L 780.166029 -268.626732 
L 780.152449 -277.427987 
L 780.142892 -286.229242 
L 780.129523 -295.030497 
L 780.112261 -303.831752 
L 780.105547 -312.633006 
L 780.104956 -321.434261 
L 780.096708 -330.235516 
L 780.075175 -339.036771 
L 780.047776 -347.838026 
L 780.032898 -356.639281 
L 780.044032 -365.440536 
L 780.065999 -374.241791 
L 780.081705 -383.043046 
L 780.097716 -391.844301 
L 780.115142 -400.645555 
L 780.123384 -409.44681 
L 780.122272 -418.248065 
L 780.130658 -427.04932 
L 780.157497 -435.850575 
L 780.190897 -444.65183 
L 780.217018 -453.453085 
L 780.233325 -462.25434 
L 780.251627 -471.055595 
L 780.27884 -479.85685 
L 780.305184 -488.658104 
L 780.322177 -497.459359 
L 780.341683 -506.260614 
L 780.370976 -515.061869 
L 780.395142 -523.863124 
L 780.406421 -532.664379 
L 780.417574 -541.465634 
L 780.435739 -550.266889 
L 780.448622 -559.068144 
L 780.455935 -567.869398 
L 780.47244 -576.670653 
L 780.496206 -585.471908 
L 780.51402 -594.273163 
L 780.52363 -603.074418 
L 780.528634 -611.875673 
L 780.532724 -620.676928 
L 780.536946 -629.478183 
L 780.541516 -638.279438 
L 780.546697 -647.080693 
L 780.554958 -655.881947 
L 780.56593 -664.683202 
L 780.575626 -673.484457 
L 780.580752 -682.285712 
L 780.580667 -691.086967 
L 780.579107 -699.888222 
L 780.581346 -708.689477 
L 780.585639 -717.490732 
L 780.5874 -726.291987 
L 780.587322 -735.093242 
L 780.588437 -743.894496 
L 780.590285 -752.695751 
L 780.590349 -761.497006 
L 780.589102 -770.298261 
L 780.590097 -779.099516 
L 780.594843 -787.900771 
L 780.600743 -796.702026 
L 780.60446 -805.503281 
L 780.605919 -814.304536 
L 780.606781 -823.105791 
L 780.607089 -831.907045 
L 780.607344 -840.7083 
L 780.6081 -849.509555 
L 780.608353 -858.31081 
L 780.608498 -867.112065 
L 780.609213 -875.91332 
L 780.609913 -884.714575 
L 780.609988 -893.51583 
L 780.610016 -902.317085 
L 780.610684 -911.11834 
L 780.611332 -919.919594 
L 780.611392 -928.720849 
L 780.611461 -937.522104 
L 780.613539 -937.522104 
L 780.613539 -937.522104 
L 780.613608 -928.720849 
L 780.613668 -919.919594 
L 780.614316 -911.11834 
L 780.614984 -902.317085 
L 780.615012 -893.51583 
L 780.615087 -884.714575 
L 780.615787 -875.91332 
L 780.616502 -867.112065 
L 780.616647 -858.31081 
L 780.6169 -849.509555 
L 780.617656 -840.7083 
L 780.617911 -831.907045 
L 780.618219 -823.105791 
L 780.619081 -814.304536 
L 780.62054 -805.503281 
L 780.624257 -796.702026 
L 780.630157 -787.900771 
L 780.634903 -779.099516 
L 780.635898 -770.298261 
L 780.634651 -761.497006 
L 780.634715 -752.695751 
L 780.636563 -743.894496 
L 780.637678 -735.093242 
L 780.6376 -726.291987 
L 780.639361 -717.490732 
L 780.643654 -708.689477 
L 780.645893 -699.888222 
L 780.644333 -691.086967 
L 780.644248 -682.285712 
L 780.649374 -673.484457 
L 780.65907 -664.683202 
L 780.670042 -655.881947 
L 780.678303 -647.080693 
L 780.683484 -638.279438 
L 780.688054 -629.478183 
L 780.692276 -620.676928 
L 780.696366 -611.875673 
L 780.70137 -603.074418 
L 780.71098 -594.273163 
L 780.728794 -585.471908 
L 780.75256 -576.670653 
L 780.769065 -567.869398 
L 780.776378 -559.068144 
L 780.789261 -550.266889 
L 780.807426 -541.465634 
L 780.818579 -532.664379 
L 780.829858 -523.863124 
L 780.854024 -515.061869 
L 780.883317 -506.260614 
L 780.902823 -497.459359 
L 780.919816 -488.658104 
L 780.94616 -479.85685 
L 780.973373 -471.055595 
L 780.991675 -462.25434 
L 781.007982 -453.453085 
L 781.034103 -444.65183 
L 781.067503 -435.850575 
L 781.094342 -427.04932 
L 781.102728 -418.248065 
L 781.101616 -409.44681 
L 781.109858 -400.645555 
L 781.127284 -391.844301 
L 781.143295 -383.043046 
L 781.159001 -374.241791 
L 781.180968 -365.440536 
L 781.192102 -356.639281 
L 781.177224 -347.838026 
L 781.149825 -339.036771 
L 781.128292 -330.235516 
L 781.120044 -321.434261 
L 781.119453 -312.633006 
L 781.112739 -303.831752 
L 781.095477 -295.030497 
L 781.082108 -286.229242 
L 781.072551 -277.427987 
L 781.058971 -268.626732 
L 781.046689 -259.825477 
L 781.035912 -251.024222 
L 781.019512 -242.222967 
L 780.999852 -233.421712 
L 780.988704 -224.620457 
L 780.987728 -215.819203 
L 780.988931 -207.017948 
L 780.986666 -198.216693 
L 780.995223 -189.415438 
L 781.022986 -180.614183 
L 781.056325 -171.812928 
L 781.093062 -163.011673 
L 781.144487 -154.210418 
L 781.21588 -145.409163 
L 781.307142 -136.607909 
L 781.428004 -127.806654 
L 781.61331 -119.005399 
L 781.917851 -110.204144 
L 782.504683 -101.402889 
L 784.679696 -92.601634 
L 794.82009 -83.800379 
L 819.829943 -74.999124 
L 836.4125 -66.197869 
z
" style="stroke: #626262; stroke-width: 1.5"/>
    </defs>
    <g clip-path="url(#p6f7e249825)">
     <use xlink:href="#ma8a31793d0" x="0" y="1103.979688" style="fill: #fdb462; stroke: #626262; stroke-width: 1.5"/>
    </g>
   </g>
   <g id="PolyCollection_7">
    <defs>
     <path id="m08e46dbad0" d="M 975.9125 -66.197869 
L 864.3125 -66.197869 
L 880.505117 -74.931328 
L 905.407344 -83.664787 
L 915.808625 -92.398246 
L 918.102685 -101.131705 
L 918.695082 -109.865164 
L 919.008399 -118.598623 
L 919.230604 -127.332082 
L 919.379898 -136.065541 
L 919.476722 -144.799 
L 919.547634 -153.532459 
L 919.605298 -162.265918 
L 919.649351 -170.999377 
L 919.683039 -179.732836 
L 919.709746 -188.466295 
L 919.723554 -197.199754 
L 919.724731 -205.933213 
L 919.724764 -214.666672 
L 919.726176 -223.400131 
L 919.722222 -232.13359 
L 919.705716 -240.867049 
L 919.676199 -249.600508 
L 919.653202 -258.333967 
L 919.647521 -267.067426 
L 919.64677 -275.800885 
L 919.644244 -284.534344 
L 919.635482 -293.267803 
L 919.619071 -302.001262 
L 919.604094 -310.734721 
L 919.597395 -319.46818 
L 919.594465 -328.201639 
L 919.588425 -336.935098 
L 919.581637 -345.668557 
L 919.573283 -354.402016 
L 919.571345 -363.135475 
L 919.576788 -371.868934 
L 919.576828 -380.602393 
L 919.582183 -389.335852 
L 919.596377 -398.069311 
L 919.608919 -406.80277 
L 919.625671 -415.536229 
L 919.647927 -424.269688 
L 919.669854 -433.003147 
L 919.688732 -441.736606 
L 919.69877 -450.470065 
L 919.706705 -459.203524 
L 919.729717 -467.936983 
L 919.76284 -476.670442 
L 919.788378 -485.403901 
L 919.806913 -494.13736 
L 919.826735 -502.870819 
L 919.850458 -511.604278 
L 919.873739 -520.337737 
L 919.895293 -529.071196 
L 919.916307 -537.804655 
L 919.933226 -546.538114 
L 919.9485 -555.271573 
L 919.961453 -564.005032 
L 919.967979 -572.738491 
L 919.977239 -581.47195 
L 919.991941 -590.205409 
L 920.005114 -598.938868 
L 920.019195 -607.672327 
L 920.031514 -616.405786 
L 920.034241 -625.139245 
L 920.035843 -633.872704 
L 920.046009 -642.606163 
L 920.05699 -651.339622 
L 920.063964 -660.073081 
L 920.069975 -668.80654 
L 920.074271 -677.539999 
L 920.077104 -686.273458 
L 920.0798 -695.006918 
L 920.082447 -703.740377 
L 920.084405 -712.473836 
L 920.085929 -721.207295 
L 920.087681 -729.940754 
L 920.088971 -738.674213 
L 920.089152 -747.407672 
L 920.088961 -756.141131 
L 920.088961 -764.87459 
L 920.089838 -773.608049 
L 920.093095 -782.341508 
L 920.097497 -791.074967 
L 920.100302 -799.808426 
L 920.10146 -808.541885 
L 920.10341 -817.275344 
L 920.105897 -826.008803 
L 920.107139 -834.742262 
L 920.106832 -843.475721 
L 920.106474 -852.20918 
L 920.107388 -860.942639 
L 920.108862 -869.676098 
L 920.110006 -878.409557 
L 920.111166 -887.143016 
L 920.111845 -895.876475 
L 920.111617 -904.609934 
L 920.111026 -913.343393 
L 920.110825 -922.076852 
L 920.111287 -930.810311 
L 920.113713 -930.810311 
L 920.113713 -930.810311 
L 920.114175 -922.076852 
L 920.113974 -913.343393 
L 920.113383 -904.609934 
L 920.113155 -895.876475 
L 920.113834 -887.143016 
L 920.114994 -878.409557 
L 920.116138 -869.676098 
L 920.117612 -860.942639 
L 920.118526 -852.20918 
L 920.118168 -843.475721 
L 920.117861 -834.742262 
L 920.119103 -826.008803 
L 920.12159 -817.275344 
L 920.12354 -808.541885 
L 920.124698 -799.808426 
L 920.127503 -791.074967 
L 920.131905 -782.341508 
L 920.135162 -773.608049 
L 920.136039 -764.87459 
L 920.136039 -756.141131 
L 920.135848 -747.407672 
L 920.136029 -738.674213 
L 920.137319 -729.940754 
L 920.139071 -721.207295 
L 920.140595 -712.473836 
L 920.142553 -703.740377 
L 920.1452 -695.006918 
L 920.147896 -686.273458 
L 920.150729 -677.539999 
L 920.155025 -668.80654 
L 920.161036 -660.073081 
L 920.16801 -651.339622 
L 920.178991 -642.606163 
L 920.189157 -633.872704 
L 920.190759 -625.139245 
L 920.193486 -616.405786 
L 920.205805 -607.672327 
L 920.219886 -598.938868 
L 920.233059 -590.205409 
L 920.247761 -581.47195 
L 920.257021 -572.738491 
L 920.263547 -564.005032 
L 920.2765 -555.271573 
L 920.291774 -546.538114 
L 920.308693 -537.804655 
L 920.329707 -529.071196 
L 920.351261 -520.337737 
L 920.374542 -511.604278 
L 920.398265 -502.870819 
L 920.418087 -494.13736 
L 920.436622 -485.403901 
L 920.46216 -476.670442 
L 920.495283 -467.936983 
L 920.518295 -459.203524 
L 920.52623 -450.470065 
L 920.536268 -441.736606 
L 920.555146 -433.003147 
L 920.577073 -424.269688 
L 920.599329 -415.536229 
L 920.616081 -406.80277 
L 920.628623 -398.069311 
L 920.642817 -389.335852 
L 920.648172 -380.602393 
L 920.648212 -371.868934 
L 920.653655 -363.135475 
L 920.651717 -354.402016 
L 920.643363 -345.668557 
L 920.636575 -336.935098 
L 920.630535 -328.201639 
L 920.627605 -319.46818 
L 920.620906 -310.734721 
L 920.605929 -302.001262 
L 920.589518 -293.267803 
L 920.580756 -284.534344 
L 920.57823 -275.800885 
L 920.577479 -267.067426 
L 920.571798 -258.333967 
L 920.548801 -249.600508 
L 920.519284 -240.867049 
L 920.502778 -232.13359 
L 920.498824 -223.400131 
L 920.500236 -214.666672 
L 920.500269 -205.933213 
L 920.501446 -197.199754 
L 920.515254 -188.466295 
L 920.541961 -179.732836 
L 920.575649 -170.999377 
L 920.619702 -162.265918 
L 920.677366 -153.532459 
L 920.748278 -144.799 
L 920.845102 -136.065541 
L 920.994396 -127.332082 
L 921.216601 -118.598623 
L 921.529918 -109.865164 
L 922.122315 -101.131705 
L 924.416375 -92.398246 
L 934.817656 -83.664787 
L 959.719883 -74.931328 
L 975.9125 -66.197869 
z
" style="stroke: #626262; stroke-width: 1.5"/>
    </defs>
    <g clip-path="url(#p6f7e249825)">
     <use xlink:href="#m08e46dbad0" x="0" y="1103.979688" style="fill: #b3de69; stroke: #626262; stroke-width: 1.5"/>
    </g>
   </g>
   <g id="PolyCollection_8">
    <defs>
     <path id="m9e7301a593" d="M 1115.4125 -66.197869 
L 1003.8125 -66.197869 
L 1020.127717 -75.040623 
L 1045.207977 -83.883376 
L 1055.447196 -92.726129 
L 1057.674479 -101.568882 
L 1058.285033 -110.411635 
L 1058.58368 -119.254389 
L 1058.767846 -128.097142 
L 1058.90495 -136.939895 
L 1059.007722 -145.782648 
L 1059.079499 -154.625402 
L 1059.127996 -163.468155 
L 1059.163801 -172.310908 
L 1059.189431 -181.153661 
L 1059.199326 -189.996414 
L 1059.211213 -198.839168 
L 1059.227693 -207.681921 
L 1059.23073 -216.524674 
L 1059.225001 -225.367427 
L 1059.221598 -234.210181 
L 1059.219413 -243.052934 
L 1059.205601 -251.895687 
L 1059.176198 -260.73844 
L 1059.150138 -269.581193 
L 1059.13569 -278.423947 
L 1059.125887 -287.2667 
L 1059.120423 -296.109453 
L 1059.113894 -304.952206 
L 1059.098221 -313.79496 
L 1059.08191 -322.637713 
L 1059.075712 -331.480466 
L 1059.074336 -340.323219 
L 1059.068722 -349.165972 
L 1059.057976 -358.008726 
L 1059.050863 -366.851479 
L 1059.063763 -375.694232 
L 1059.083522 -384.536985 
L 1059.091456 -393.379739 
L 1059.100551 -402.222492 
L 1059.115012 -411.065245 
L 1059.128508 -419.907998 
L 1059.146806 -428.750751 
L 1059.174818 -437.593505 
L 1059.203253 -446.436258 
L 1059.218017 -455.279011 
L 1059.229032 -464.121764 
L 1059.249616 -472.964518 
L 1059.275615 -481.807271 
L 1059.301038 -490.650024 
L 1059.324755 -499.492777 
L 1059.349441 -508.33553 
L 1059.373886 -517.178284 
L 1059.390715 -526.021037 
L 1059.401057 -534.86379 
L 1059.416546 -543.706543 
L 1059.43384 -552.549297 
L 1059.449618 -561.39205 
L 1059.468572 -570.234803 
L 1059.488042 -579.077556 
L 1059.504701 -587.920309 
L 1059.515585 -596.763063 
L 1059.520053 -605.605816 
L 1059.524932 -614.448569 
L 1059.530051 -623.291322 
L 1059.534318 -632.134076 
L 1059.542724 -640.976829 
L 1059.552016 -649.819582 
L 1059.560156 -658.662335 
L 1059.568526 -667.505088 
L 1059.574905 -676.347842 
L 1059.577457 -685.190595 
L 1059.578439 -694.033348 
L 1059.580191 -702.876101 
L 1059.583503 -711.718855 
L 1059.586092 -720.561608 
L 1059.586145 -729.404361 
L 1059.586228 -738.247114 
L 1059.588063 -747.089867 
L 1059.589705 -755.932621 
L 1059.589554 -764.775374 
L 1059.59025 -773.618127 
L 1059.593139 -782.46088 
L 1059.596834 -791.303634 
L 1059.600214 -800.146387 
L 1059.602365 -808.98914 
L 1059.604278 -817.831893 
L 1059.606602 -826.674646 
L 1059.607448 -835.5174 
L 1059.60674 -844.360153 
L 1059.606796 -853.202906 
L 1059.608338 -862.045659 
L 1059.609961 -870.888413 
L 1059.610458 -879.731166 
L 1059.610037 -888.573919 
L 1059.609979 -897.416672 
L 1059.610522 -906.259425 
L 1059.61121 -915.102179 
L 1059.611764 -923.944932 
L 1059.611943 -932.787685 
L 1059.61192 -941.630438 
L 1059.61308 -941.630438 
L 1059.61308 -941.630438 
L 1059.613057 -932.787685 
L 1059.613236 -923.944932 
L 1059.61379 -915.102179 
L 1059.614478 -906.259425 
L 1059.615021 -897.416672 
L 1059.614963 -888.573919 
L 1059.614542 -879.731166 
L 1059.615039 -870.888413 
L 1059.616662 -862.045659 
L 1059.618204 -853.202906 
L 1059.61826 -844.360153 
L 1059.617552 -835.5174 
L 1059.618398 -826.674646 
L 1059.620722 -817.831893 
L 1059.622635 -808.98914 
L 1059.624786 -800.146387 
L 1059.628166 -791.303634 
L 1059.631861 -782.46088 
L 1059.63475 -773.618127 
L 1059.635446 -764.775374 
L 1059.635295 -755.932621 
L 1059.636937 -747.089867 
L 1059.638772 -738.247114 
L 1059.638855 -729.404361 
L 1059.638908 -720.561608 
L 1059.641497 -711.718855 
L 1059.644809 -702.876101 
L 1059.646561 -694.033348 
L 1059.647543 -685.190595 
L 1059.650095 -676.347842 
L 1059.656474 -667.505088 
L 1059.664844 -658.662335 
L 1059.672984 -649.819582 
L 1059.682276 -640.976829 
L 1059.690682 -632.134076 
L 1059.694949 -623.291322 
L 1059.700068 -614.448569 
L 1059.704947 -605.605816 
L 1059.709415 -596.763063 
L 1059.720299 -587.920309 
L 1059.736958 -579.077556 
L 1059.756428 -570.234803 
L 1059.775382 -561.39205 
L 1059.79116 -552.549297 
L 1059.808454 -543.706543 
L 1059.823943 -534.86379 
L 1059.834285 -526.021037 
L 1059.851114 -517.178284 
L 1059.875559 -508.33553 
L 1059.900245 -499.492777 
L 1059.923962 -490.650024 
L 1059.949385 -481.807271 
L 1059.975384 -472.964518 
L 1059.995968 -464.121764 
L 1060.006983 -455.279011 
L 1060.021747 -446.436258 
L 1060.050182 -437.593505 
L 1060.078194 -428.750751 
L 1060.096492 -419.907998 
L 1060.109988 -411.065245 
L 1060.124449 -402.222492 
L 1060.133544 -393.379739 
L 1060.141478 -384.536985 
L 1060.161237 -375.694232 
L 1060.174137 -366.851479 
L 1060.167024 -358.008726 
L 1060.156278 -349.165972 
L 1060.150664 -340.323219 
L 1060.149288 -331.480466 
L 1060.14309 -322.637713 
L 1060.126779 -313.79496 
L 1060.111106 -304.952206 
L 1060.104577 -296.109453 
L 1060.099113 -287.2667 
L 1060.08931 -278.423947 
L 1060.074862 -269.581193 
L 1060.048802 -260.73844 
L 1060.019399 -251.895687 
L 1060.005587 -243.052934 
L 1060.003402 -234.210181 
L 1059.999999 -225.367427 
L 1059.99427 -216.524674 
L 1059.997307 -207.681921 
L 1060.013787 -198.839168 
L 1060.025674 -189.996414 
L 1060.035569 -181.153661 
L 1060.061199 -172.310908 
L 1060.097004 -163.468155 
L 1060.145501 -154.625402 
L 1060.217278 -145.782648 
L 1060.32005 -136.939895 
L 1060.457154 -128.097142 
L 1060.64132 -119.254389 
L 1060.939967 -110.411635 
L 1061.550521 -101.568882 
L 1063.777804 -92.726129 
L 1074.017023 -83.883376 
L 1099.097283 -75.040623 
L 1115.4125 -66.197869 
z
" style="stroke: #626262; stroke-width: 1.5"/>
    </defs>
    <g clip-path="url(#p6f7e249825)">
     <use xlink:href="#m9e7301a593" x="0" y="1103.979688" style="fill: #fccde5; stroke: #626262; stroke-width: 1.5"/>
    </g>
   </g>
   <g id="matplotlib.axis_1">
    <g id="xtick_1">
     <g id="line2d_1">
      <defs>
       <path id="m8cac59fe02" d="M 0 0 
L 0 3.5 
" style="stroke: #000000; stroke-width: 0.8"/>
      </defs>
      <g>
       <use xlink:href="#m8cac59fe02" x="83.1125" y="1087.2" style="stroke: #000000; stroke-width: 0.8"/>
      </g>
     </g>
     <g id="text_1">
      <!-- ASO_01_rep1 -->
      <g transform="translate(49.844531 1101.621875) scale(0.1 -0.1)">
       <defs>
        <path id="DejaVuSans-41" d="M 2188 4044 
L 1331 1722 
L 3047 1722 
L 2188 4044 
z
M 1831 4666 
L 2547 4666 
L 4325 0 
L 3669 0 
L 3244 1197 
L 1141 1197 
L 716 0 
L 50 0 
L 1831 4666 
z
" transform="scale(0.015625)"/>
        <path id="DejaVuSans-53" d="M 3425 4513 
L 3425 3897 
Q 3066 4069 2747 4153 
Q 2428 4238 2131 4238 
Q 1616 4238 1336 4038 
Q 1056 3838 1056 3469 
Q 1056 3159 1242 3001 
Q 1428 2844 1947 2747 
L 2328 2669 
Q 3034 2534 3370 2195 
Q 3706 1856 3706 1288 
Q 3706 609 3251 259 
Q 2797 -91 1919 -91 
Q 1588 -91 1214 -16 
Q 841 59 441 206 
L 441 856 
Q 825 641 1194 531 
Q 1563 422 1919 422 
Q 2459 422 2753 634 
Q 3047 847 3047 1241 
Q 3047 1584 2836 1778 
Q 2625 1972 2144 2069 
L 1759 2144 
Q 1053 2284 737 2584 
Q 422 2884 422 3419 
Q 422 4038 858 4394 
Q 1294 4750 2059 4750 
Q 2388 4750 2728 4690 
Q 3069 4631 3425 4513 
z
" transform="scale(0.015625)"/>
        <path id="DejaVuSans-4f" d="M 2522 4238 
Q 1834 4238 1429 3725 
Q 1025 3213 1025 2328 
Q 1025 1447 1429 934 
Q 1834 422 2522 422 
Q 3209 422 3611 934 
Q 4013 1447 4013 2328 
Q 4013 3213 3611 3725 
Q 3209 4238 2522 4238 
z
M 2522 4750 
Q 3503 4750 4090 4092 
Q 4678 3434 4678 2328 
Q 4678 1225 4090 567 
Q 3503 -91 2522 -91 
Q 1538 -91 948 565 
Q 359 1222 359 2328 
Q 359 3434 948 4092 
Q 1538 4750 2522 4750 
z
" transform="scale(0.015625)"/>
        <path id="DejaVuSans-5f" d="M 3263 -1063 
L 3263 -1509 
L -63 -1509 
L -63 -1063 
L 3263 -1063 
z
" transform="scale(0.015625)"/>
        <path id="DejaVuSans-30" d="M 2034 4250 
Q 1547 4250 1301 3770 
Q 1056 3291 1056 2328 
Q 1056 1369 1301 889 
Q 1547 409 2034 409 
Q 2525 409 2770 889 
Q 3016 1369 3016 2328 
Q 3016 3291 2770 3770 
Q 2525 4250 2034 4250 
z
M 2034 4750 
Q 2819 4750 3233 4129 
Q 3647 3509 3647 2328 
Q 3647 1150 3233 529 
Q 2819 -91 2034 -91 
Q 1250 -91 836 529 
Q 422 1150 422 2328 
Q 422 3509 836 4129 
Q 1250 4750 2034 4750 
z
" transform="scale(0.015625)"/>
        <path id="DejaVuSans-31" d="M 794 531 
L 1825 531 
L 1825 4091 
L 703 3866 
L 703 4441 
L 1819 4666 
L 2450 4666 
L 2450 531 
L 3481 531 
L 3481 0 
L 794 0 
L 794 531 
z
" transform="scale(0.015625)"/>
        <path id="DejaVuSans-72" d="M 2631 2963 
Q 2534 3019 2420 3045 
Q 2306 3072 2169 3072 
Q 1681 3072 1420 2755 
Q 1159 2438 1159 1844 
L 1159 0 
L 581 0 
L 581 3500 
L 1159 3500 
L 1159 2956 
Q 1341 3275 1631 3429 
Q 1922 3584 2338 3584 
Q 2397 3584 2469 3576 
Q 2541 3569 2628 3553 
L 2631 2963 
z
" transform="scale(0.015625)"/>
        <path id="DejaVuSans-65" d="M 3597 1894 
L 3597 1613 
L 953 1613 
Q 991 1019 1311 708 
Q 1631 397 2203 397 
Q 2534 397 2845 478 
Q 3156 559 3463 722 
L 3463 178 
Q 3153 47 2828 -22 
Q 2503 -91 2169 -91 
Q 1331 -91 842 396 
Q 353 884 353 1716 
Q 353 2575 817 3079 
Q 1281 3584 2069 3584 
Q 2775 3584 3186 3129 
Q 3597 2675 3597 1894 
z
M 3022 2063 
Q 3016 2534 2758 2815 
Q 2500 3097 2075 3097 
Q 1594 3097 1305 2825 
Q 1016 2553 972 2059 
L 3022 2063 
z
" transform="scale(0.015625)"/>
        <path id="DejaVuSans-70" d="M 1159 525 
L 1159 -1331 
L 581 -1331 
L 581 3500 
L 1159 3500 
L 1159 2969 
Q 1341 3281 1617 3432 
Q 1894 3584 2278 3584 
Q 2916 3584 3314 3078 
Q 3713 2572 3713 1747 
Q 3713 922 3314 415 
Q 2916 -91 2278 -91 
Q 1894 -91 1617 61 
Q 1341 213 1159 525 
z
M 3116 1747 
Q 3116 2381 2855 2742 
Q 2594 3103 2138 3103 
Q 1681 3103 1420 2742 
Q 1159 2381 1159 1747 
Q 1159 1113 1420 752 
Q 1681 391 2138 391 
Q 2594 391 2855 752 
Q 3116 1113 3116 1747 
z
" transform="scale(0.015625)"/>
       </defs>
       <use xlink:href="#DejaVuSans-41"/>
       <use xlink:href="#DejaVuSans-53" x="68.408203"/>
       <use xlink:href="#DejaVuSans-4f" x="131.884766"/>
       <use xlink:href="#DejaVuSans-5f" x="210.595703"/>
       <use xlink:href="#DejaVuSans-30" x="260.595703"/>
       <use xlink:href="#DejaVuSans-31" x="324.21875"/>
       <use xlink:href="#DejaVuSans-5f" x="387.841797"/>
       <use xlink:href="#DejaVuSans-72" x="437.841797"/>
       <use xlink:href="#DejaVuSans-65" x="476.705078"/>
       <use xlink:href="#DejaVuSans-70" x="538.228516"/>
       <use xlink:href="#DejaVuSans-31" x="601.705078"/>
      </g>
     </g>
    </g>
    <g id="xtick_2">
     <g id="line2d_2">
      <g>
       <use xlink:href="#m8cac59fe02" x="222.6125" y="1087.2" style="stroke: #000000; stroke-width: 0.8"/>
      </g>
     </g>
     <g id="text_2">
      <!-- ASO_01_rep2 -->
      <g transform="translate(189.344531 1101.621875) scale(0.1 -0.1)">
       <defs>
        <path id="DejaVuSans-32" d="M 1228 531 
L 3431 531 
L 3431 0 
L 469 0 
L 469 531 
Q 828 903 1448 1529 
Q 2069 2156 2228 2338 
Q 2531 2678 2651 2914 
Q 2772 3150 2772 3378 
Q 2772 3750 2511 3984 
Q 2250 4219 1831 4219 
Q 1534 4219 1204 4116 
Q 875 4013 500 3803 
L 500 4441 
Q 881 4594 1212 4672 
Q 1544 4750 1819 4750 
Q 2544 4750 2975 4387 
Q 3406 4025 3406 3419 
Q 3406 3131 3298 2873 
Q 3191 2616 2906 2266 
Q 2828 2175 2409 1742 
Q 1991 1309 1228 531 
z
" transform="scale(0.015625)"/>
       </defs>
       <use xlink:href="#DejaVuSans-41"/>
       <use xlink:href="#DejaVuSans-53" x="68.408203"/>
       <use xlink:href="#DejaVuSans-4f" x="131.884766"/>
       <use xlink:href="#DejaVuSans-5f" x="210.595703"/>
       <use xlink:href="#DejaVuSans-30" x="260.595703"/>
       <use xlink:href="#DejaVuSans-31" x="324.21875"/>
       <use xlink:href="#DejaVuSans-5f" x="387.841797"/>
       <use xlink:href="#DejaVuSans-72" x="437.841797"/>
       <use xlink:href="#DejaVuSans-65" x="476.705078"/>
       <use xlink:href="#DejaVuSans-70" x="538.228516"/>
       <use xlink:href="#DejaVuSans-32" x="601.705078"/>
      </g>
     </g>
    </g>
    <g id="xtick_3">
     <g id="line2d_3">
      <g>
       <use xlink:href="#m8cac59fe02" x="362.1125" y="1087.2" style="stroke: #000000; stroke-width: 0.8"/>
      </g>
     </g>
     <g id="text_3">
      <!-- ASO_03_rep1 -->
      <g transform="translate(328.844531 1101.621875) scale(0.1 -0.1)">
       <defs>
        <path id="DejaVuSans-33" d="M 2597 2516 
Q 3050 2419 3304 2112 
Q 3559 1806 3559 1356 
Q 3559 666 3084 287 
Q 2609 -91 1734 -91 
Q 1441 -91 1130 -33 
Q 819 25 488 141 
L 488 750 
Q 750 597 1062 519 
Q 1375 441 1716 441 
Q 2309 441 2620 675 
Q 2931 909 2931 1356 
Q 2931 1769 2642 2001 
Q 2353 2234 1838 2234 
L 1294 2234 
L 1294 2753 
L 1863 2753 
Q 2328 2753 2575 2939 
Q 2822 3125 2822 3475 
Q 2822 3834 2567 4026 
Q 2313 4219 1838 4219 
Q 1578 4219 1281 4162 
Q 984 4106 628 3988 
L 628 4550 
Q 988 4650 1302 4700 
Q 1616 4750 1894 4750 
Q 2613 4750 3031 4423 
Q 3450 4097 3450 3541 
Q 3450 3153 3228 2886 
Q 3006 2619 2597 2516 
z
" transform="scale(0.015625)"/>
       </defs>
       <use xlink:href="#DejaVuSans-41"/>
       <use xlink:href="#DejaVuSans-53" x="68.408203"/>
       <use xlink:href="#DejaVuSans-4f" x="131.884766"/>
       <use xlink:href="#DejaVuSans-5f" x="210.595703"/>
       <use xlink:href="#DejaVuSans-30" x="260.595703"/>
       <use xlink:href="#DejaVuSans-33" x="324.21875"/>
       <use xlink:href="#DejaVuSans-5f" x="387.841797"/>
       <use xlink:href="#DejaVuSans-72" x="437.841797"/>
       <use xlink:href="#DejaVuSans-65" x="476.705078"/>
       <use xlink:href="#DejaVuSans-70" x="538.228516"/>
       <use xlink:href="#DejaVuSans-31" x="601.705078"/>
      </g>
     </g>
    </g>
    <g id="xtick_4">
     <g id="line2d_4">
      <g>
       <use xlink:href="#m8cac59fe02" x="501.6125" y="1087.2" style="stroke: #000000; stroke-width: 0.8"/>
      </g>
     </g>
     <g id="text_4">
      <!-- ASO_03_rep2 -->
      <g transform="translate(468.344531 1101.621875) scale(0.1 -0.1)">
       <use xlink:href="#DejaVuSans-41"/>
       <use xlink:href="#DejaVuSans-53" x="68.408203"/>
       <use xlink:href="#DejaVuSans-4f" x="131.884766"/>
       <use xlink:href="#DejaVuSans-5f" x="210.595703"/>
       <use xlink:href="#DejaVuSans-30" x="260.595703"/>
       <use xlink:href="#DejaVuSans-33" x="324.21875"/>
       <use xlink:href="#DejaVuSans-5f" x="387.841797"/>
       <use xlink:href="#DejaVuSans-72" x="437.841797"/>
       <use xlink:href="#DejaVuSans-65" x="476.705078"/>
       <use xlink:href="#DejaVuSans-70" x="538.228516"/>
       <use xlink:href="#DejaVuSans-32" x="601.705078"/>
      </g>
     </g>
    </g>
    <g id="xtick_5">
     <g id="line2d_5">
      <g>
       <use xlink:href="#m8cac59fe02" x="641.1125" y="1087.2" style="stroke: #000000; stroke-width: 0.8"/>
      </g>
     </g>
     <g id="text_5">
      <!-- WT_rep1 -->
      <g transform="translate(619.239844 1101.520313) scale(0.1 -0.1)">
       <defs>
        <path id="DejaVuSans-57" d="M 213 4666 
L 850 4666 
L 1831 722 
L 2809 4666 
L 3519 4666 
L 4500 722 
L 5478 4666 
L 6119 4666 
L 4947 0 
L 4153 0 
L 3169 4050 
L 2175 0 
L 1381 0 
L 213 4666 
z
" transform="scale(0.015625)"/>
        <path id="DejaVuSans-54" d="M -19 4666 
L 3928 4666 
L 3928 4134 
L 2272 4134 
L 2272 0 
L 1638 0 
L 1638 4134 
L -19 4134 
L -19 4666 
z
" transform="scale(0.015625)"/>
       </defs>
       <use xlink:href="#DejaVuSans-57"/>
       <use xlink:href="#DejaVuSans-54" x="98.876953"/>
       <use xlink:href="#DejaVuSans-5f" x="159.960938"/>
       <use xlink:href="#DejaVuSans-72" x="209.960938"/>
       <use xlink:href="#DejaVuSans-65" x="248.824219"/>
       <use xlink:href="#DejaVuSans-70" x="310.347656"/>
       <use xlink:href="#DejaVuSans-31" x="373.824219"/>
      </g>
     </g>
    </g>
    <g id="xtick_6">
     <g id="line2d_6">
      <g>
       <use xlink:href="#m8cac59fe02" x="780.6125" y="1087.2" style="stroke: #000000; stroke-width: 0.8"/>
      </g>
     </g>
     <g id="text_6">
      <!-- WT_rep2 -->
      <g transform="translate(758.739844 1101.621875) scale(0.1 -0.1)">
       <use xlink:href="#DejaVuSans-57"/>
       <use xlink:href="#DejaVuSans-54" x="98.876953"/>
       <use xlink:href="#DejaVuSans-5f" x="159.960938"/>
       <use xlink:href="#DejaVuSans-72" x="209.960938"/>
       <use xlink:href="#DejaVuSans-65" x="248.824219"/>
       <use xlink:href="#DejaVuSans-70" x="310.347656"/>
       <use xlink:href="#DejaVuSans-32" x="373.824219"/>
      </g>
     </g>
    </g>
    <g id="xtick_7">
     <g id="line2d_7">
      <g>
       <use xlink:href="#m8cac59fe02" x="920.1125" y="1087.2" style="stroke: #000000; stroke-width: 0.8"/>
      </g>
     </g>
     <g id="text_7">
      <!-- WT_rep3 -->
      <g transform="translate(898.239844 1101.621875) scale(0.1 -0.1)">
       <use xlink:href="#DejaVuSans-57"/>
       <use xlink:href="#DejaVuSans-54" x="98.876953"/>
       <use xlink:href="#DejaVuSans-5f" x="159.960938"/>
       <use xlink:href="#DejaVuSans-72" x="209.960938"/>
       <use xlink:href="#DejaVuSans-65" x="248.824219"/>
       <use xlink:href="#DejaVuSans-70" x="310.347656"/>
       <use xlink:href="#DejaVuSans-33" x="373.824219"/>
      </g>
     </g>
    </g>
    <g id="xtick_8">
     <g id="line2d_8">
      <g>
       <use xlink:href="#m8cac59fe02" x="1059.6125" y="1087.2" style="stroke: #000000; stroke-width: 0.8"/>
      </g>
     </g>
     <g id="text_8">
      <!-- WT_rep4 -->
      <g transform="translate(1037.739844 1101.520313) scale(0.1 -0.1)">
       <defs>
        <path id="DejaVuSans-34" d="M 2419 4116 
L 825 1625 
L 2419 1625 
L 2419 4116 
z
M 2253 4666 
L 3047 4666 
L 3047 1625 
L 3713 1625 
L 3713 1100 
L 3047 1100 
L 3047 0 
L 2419 0 
L 2419 1100 
L 313 1100 
L 313 1709 
L 2253 4666 
z
" transform="scale(0.015625)"/>
       </defs>
       <use xlink:href="#DejaVuSans-57"/>
       <use xlink:href="#DejaVuSans-54" x="98.876953"/>
       <use xlink:href="#DejaVuSans-5f" x="159.960938"/>
       <use xlink:href="#DejaVuSans-72" x="209.960938"/>
       <use xlink:href="#DejaVuSans-65" x="248.824219"/>
       <use xlink:href="#DejaVuSans-70" x="310.347656"/>
       <use xlink:href="#DejaVuSans-34" x="373.824219"/>
      </g>
     </g>
    </g>
   </g>
   <g id="matplotlib.axis_2">
    <g id="ytick_1">
     <g id="line2d_9">
      <defs>
       <path id="m0295d130c4" d="M 0 0 
L -3.5 0 
" style="stroke: #000000; stroke-width: 0.8"/>
      </defs>
      <g>
       <use xlink:href="#m0295d130c4" x="13.3625" y="1037.781818" style="stroke: #000000; stroke-width: 0.8"/>
      </g>
     </g>
     <g id="text_9">
      <!-- 0 -->
      <g transform="translate(0 1041.581037) scale(0.1 -0.1)">
       <use xlink:href="#DejaVuSans-30"/>
      </g>
     </g>
    </g>
    <g id="ytick_2">
     <g id="line2d_10">
      <g>
       <use xlink:href="#m0295d130c4" x="13.3625" y="815.513815" style="stroke: #000000; stroke-width: 0.8"/>
      </g>
     </g>
     <g id="text_10">
      <!-- 1 -->
      <g transform="translate(0 819.313034) scale(0.1 -0.1)">
       <use xlink:href="#DejaVuSans-31"/>
      </g>
     </g>
    </g>
    <g id="ytick_3">
     <g id="line2d_11">
      <g>
       <use xlink:href="#m0295d130c4" x="13.3625" y="593.245812" style="stroke: #000000; stroke-width: 0.8"/>
      </g>
     </g>
     <g id="text_11">
      <!-- 2 -->
      <g transform="translate(0 597.045031) scale(0.1 -0.1)">
       <use xlink:href="#DejaVuSans-32"/>
      </g>
     </g>
    </g>
    <g id="ytick_4">
     <g id="line2d_12">
      <g>
       <use xlink:href="#m0295d130c4" x="13.3625" y="370.977809" style="stroke: #000000; stroke-width: 0.8"/>
      </g>
     </g>
     <g id="text_12">
      <!-- 3 -->
      <g transform="translate(0 374.777027) scale(0.1 -0.1)">
       <use xlink:href="#DejaVuSans-33"/>
      </g>
     </g>
    </g>
    <g id="ytick_5">
     <g id="line2d_13">
      <g>
       <use xlink:href="#m0295d130c4" x="13.3625" y="148.709805" style="stroke: #000000; stroke-width: 0.8"/>
      </g>
     </g>
     <g id="text_13">
      <!-- 4 -->
      <g transform="translate(0 152.509024) scale(0.1 -0.1)">
       <use xlink:href="#DejaVuSans-34"/>
      </g>
     </g>
    </g>
   </g>
   <g id="line2d_14">
    <path d="M 66.033465 1037.781818 
L 100.191535 1037.781818 
" clip-path="url(#p6f7e249825)" style="fill: none; stroke-dasharray: 3.375,3.375; stroke-dashoffset: 0; stroke: #626262; stroke-width: 1.5"/>
   </g>
   <g id="line2d_15">
    <path d="M 66.961287 1026.186932 
L 99.263713 1026.186932 
" clip-path="url(#p6f7e249825)" style="fill: none; stroke-dasharray: 6.75,6.75; stroke-dashoffset: 0; stroke: #626262; stroke-width: 1.5"/>
   </g>
   <g id="line2d_16">
    <path d="M 81.611613 800.18652 
L 84.613387 800.18652 
" clip-path="url(#p6f7e249825)" style="fill: none; stroke-dasharray: 3.375,3.375; stroke-dashoffset: 0; stroke: #626262; stroke-width: 1.5"/>
   </g>
   <g id="line2d_17">
    <path d="M 205.533465 1037.781818 
L 239.691535 1037.781818 
" clip-path="url(#p6f7e249825)" style="fill: none; stroke-dasharray: 3.375,3.375; stroke-dashoffset: 0; stroke: #626262; stroke-width: 1.5"/>
   </g>
   <g id="line2d_18">
    <path d="M 206.45715 1028.427656 
L 238.76785 1028.427656 
" clip-path="url(#p6f7e249825)" style="fill: none; stroke-dasharray: 6.75,6.75; stroke-dashoffset: 0; stroke: #626262; stroke-width: 1.5"/>
   </g>
   <g id="line2d_19">
    <path d="M 221.113885 802.184159 
L 224.111115 802.184159 
" clip-path="url(#p6f7e249825)" style="fill: none; stroke-dasharray: 3.375,3.375; stroke-dashoffset: 0; stroke: #626262; stroke-width: 1.5"/>
   </g>
   <g id="line2d_20">
    <path d="M 345.033465 1037.781818 
L 379.191535 1037.781818 
" clip-path="url(#p6f7e249825)" style="fill: none; stroke-dasharray: 3.375,3.375; stroke-dashoffset: 0; stroke: #626262; stroke-width: 1.5"/>
   </g>
   <g id="line2d_21">
    <path d="M 345.669051 1029.546818 
L 378.555949 1029.546818 
" clip-path="url(#p6f7e249825)" style="fill: none; stroke-dasharray: 6.75,6.75; stroke-dashoffset: 0; stroke: #626262; stroke-width: 1.5"/>
   </g>
   <g id="line2d_22">
    <path d="M 360.695243 803.456868 
L 363.529757 803.456868 
" clip-path="url(#p6f7e249825)" style="fill: none; stroke-dasharray: 3.375,3.375; stroke-dashoffset: 0; stroke: #626262; stroke-width: 1.5"/>
   </g>
   <g id="line2d_23">
    <path d="M 484.533465 1037.781818 
L 518.691535 1037.781818 
" clip-path="url(#p6f7e249825)" style="fill: none; stroke-dasharray: 3.375,3.375; stroke-dashoffset: 0; stroke: #626262; stroke-width: 1.5"/>
   </g>
   <g id="line2d_24">
    <path d="M 485.323099 1027.721453 
L 517.901901 1027.721453 
" clip-path="url(#p6f7e249825)" style="fill: none; stroke-dasharray: 6.75,6.75; stroke-dashoffset: 0; stroke: #626262; stroke-width: 1.5"/>
   </g>
   <g id="line2d_25">
    <path d="M 500.195596 803.499211 
L 503.029404 803.499211 
" clip-path="url(#p6f7e249825)" style="fill: none; stroke-dasharray: 3.375,3.375; stroke-dashoffset: 0; stroke: #626262; stroke-width: 1.5"/>
   </g>
   <g id="line2d_26">
    <path d="M 585.8705 1037.781818 
L 696.3545 1037.781818 
" clip-path="url(#p6f7e249825)" style="fill: none; stroke-dasharray: 3.375,3.375; stroke-dashoffset: 0; stroke: #626262; stroke-width: 1.5"/>
   </g>
   <g id="line2d_27">
    <path d="M 585.8705 1037.781818 
L 696.3545 1037.781818 
" clip-path="url(#p6f7e249825)" style="fill: none; stroke-dasharray: 6.75,6.75; stroke-dashoffset: 0; stroke: #626262; stroke-width: 1.5"/>
   </g>
   <g id="line2d_28">
    <path d="M 585.8705 1037.781818 
L 696.3545 1037.781818 
" clip-path="url(#p6f7e249825)" style="fill: none; stroke-dasharray: 3.375,3.375; stroke-dashoffset: 0; stroke: #626262; stroke-width: 1.5"/>
   </g>
   <g id="line2d_29">
    <path d="M 725.3705 1037.781818 
L 835.8545 1037.781818 
" clip-path="url(#p6f7e249825)" style="fill: none; stroke-dasharray: 3.375,3.375; stroke-dashoffset: 0; stroke: #626262; stroke-width: 1.5"/>
   </g>
   <g id="line2d_30">
    <path d="M 725.3705 1037.781818 
L 835.8545 1037.781818 
" clip-path="url(#p6f7e249825)" style="fill: none; stroke-dasharray: 6.75,6.75; stroke-dashoffset: 0; stroke: #626262; stroke-width: 1.5"/>
   </g>
   <g id="line2d_31">
    <path d="M 725.3705 1037.781818 
L 835.8545 1037.781818 
" clip-path="url(#p6f7e249825)" style="fill: none; stroke-dasharray: 3.375,3.375; stroke-dashoffset: 0; stroke: #626262; stroke-width: 1.5"/>
   </g>
   <g id="line2d_32">
    <path d="M 864.8705 1037.781818 
L 975.3545 1037.781818 
" clip-path="url(#p6f7e249825)" style="fill: none; stroke-dasharray: 3.375,3.375; stroke-dashoffset: 0; stroke: #626262; stroke-width: 1.5"/>
   </g>
   <g id="line2d_33">
    <path d="M 864.8705 1037.781818 
L 975.3545 1037.781818 
" clip-path="url(#p6f7e249825)" style="fill: none; stroke-dasharray: 6.75,6.75; stroke-dashoffset: 0; stroke: #626262; stroke-width: 1.5"/>
   </g>
   <g id="line2d_34">
    <path d="M 864.8705 1037.781818 
L 975.3545 1037.781818 
" clip-path="url(#p6f7e249825)" style="fill: none; stroke-dasharray: 3.375,3.375; stroke-dashoffset: 0; stroke: #626262; stroke-width: 1.5"/>
   </g>
   <g id="line2d_35">
    <path d="M 1004.3705 1037.781818 
L 1114.8545 1037.781818 
" clip-path="url(#p6f7e249825)" style="fill: none; stroke-dasharray: 3.375,3.375; stroke-dashoffset: 0; stroke: #626262; stroke-width: 1.5"/>
   </g>
   <g id="line2d_36">
    <path d="M 1004.3705 1037.781818 
L 1114.8545 1037.781818 
" clip-path="url(#p6f7e249825)" style="fill: none; stroke-dasharray: 6.75,6.75; stroke-dashoffset: 0; stroke: #626262; stroke-width: 1.5"/>
   </g>
   <g id="line2d_37">
    <path d="M 1004.3705 1037.781818 
L 1114.8545 1037.781818 
" clip-path="url(#p6f7e249825)" style="fill: none; stroke-dasharray: 3.375,3.375; stroke-dashoffset: 0; stroke: #626262; stroke-width: 1.5"/>
   </g>
   <g id="patch_3">
    <path d="M 13.3625 1087.2 
L 13.3625 0 
" style="fill: none; stroke: #000000; stroke-width: 0.8; stroke-linejoin: miter; stroke-linecap: square"/>
   </g>
   <g id="patch_4">
    <path d="M 1129.3625 1087.2 
L 1129.3625 0 
" style="fill: none; stroke: #000000; stroke-width: 0.8; stroke-linejoin: miter; stroke-linecap: square"/>
   </g>
   <g id="patch_5">
    <path d="M 13.3625 1087.2 
L 1129.3625 1087.2 
" style="fill: none; stroke: #000000; stroke-width: 0.8; stroke-linejoin: miter; stroke-linecap: square"/>
   </g>
   <g id="patch_6">
    <path d="M 13.3625 0 
L 1129.3625 0 
" style="fill: none; stroke: #000000; stroke-width: 0.8; stroke-linejoin: miter; stroke-linecap: square"/>
   </g>
  </g>
 </g>
 <defs>
  <clipPath id="p6f7e249825">
   <rect x="13.3625" y="0" width="1116" height="1087.2"/>
  </clipPath>
 </defs>
</svg>
